<?xml version="1.0" encoding="utf-8"?>
<!-- Generator: Adobe Illustrator 15.1.0, SVG Export Plug-In  -->
<!DOCTYPE svg PUBLIC "-//W3C//DTD SVG 1.1//EN" "http://www.w3.org/Graphics/SVG/1.1/DTD/svg11.dtd" [
	<!ENTITY ns_flows "http://ns.adobe.com/Flows/1.0/">
]>
<svg version="1.1"
	 xmlns="http://www.w3.org/2000/svg" xmlns:xlink="http://www.w3.org/1999/xlink" xmlns:a="http://ns.adobe.com/AdobeSVGViewerExtensions/3.0/"
	 x="0px" y="0px" width="267px" height="264px" viewBox="-4.757 -4.666 267 264" enable-background="new -4.757 -4.666 267 264"
	 xml:space="preserve">
<defs>
</defs>
<g>
	<g>
		<path d="M13.258,229.996c-0.912-72.772-6.814-145.438-5.58-218.245c0.04-2.358-1.621-4.674-3.515-5.947
			C2.893,4.95,0.209,4.332,0.169,6.698c-1.234,72.807,4.668,145.472,5.58,218.246c0.03,2.38,1.576,4.644,3.515,5.947
			C10.486,231.712,13.288,232.384,13.258,229.996L13.258,229.996z"/>
	</g>
</g>
<g>
	<g>
		<path d="M6.021,11.521c72.464,0.627,144.942-1.01,217.391-2.31c4.615-0.083,0.848-9.286-3.336-9.211
			C147.627,1.301,75.148,2.938,2.685,2.311C-1.885,2.271,1.843,11.485,6.021,11.521L6.021,11.521z"/>
	</g>
</g>
<g>
	<g>
		<path d="M12.783,257.123c79.044-3.939,158.238-4.89,237.328-1.748c1.422,0.057,5.015,0.016,5.184-2.104
			c0.162-2.044-3.366-2.841-4.785-2.897c-79.976-3.176-160.063-2.268-239.993,1.717c-1.25,0.063-4.63,0.786-3.726,2.799
			C7.682,256.874,10.949,257.215,12.783,257.123L12.783,257.123z"/>
	</g>
</g>
<g>
	<g>
		<path d="M258.646,250.748c-5.572-79.161-12.789-158.388-13.307-237.796c-0.028-4.31-9.839-5.451-9.807-0.37
			c0.519,79.409,7.735,158.635,13.307,237.797C249.146,254.723,259.001,255.789,258.646,250.748L258.646,250.748z"/>
	</g>
</g>
</svg>
