<?xml version="1.0" encoding="utf-8"?>
<!-- Generator: Adobe Illustrator 15.1.0, SVG Export Plug-In  -->
<!DOCTYPE svg PUBLIC "-//W3C//DTD SVG 1.1//EN" "http://www.w3.org/Graphics/SVG/1.1/DTD/svg11.dtd" [
	<!ENTITY ns_flows "http://ns.adobe.com/Flows/1.0/">
]>
<svg version="1.1"
	 xmlns="http://www.w3.org/2000/svg" xmlns:xlink="http://www.w3.org/1999/xlink" xmlns:a="http://ns.adobe.com/AdobeSVGViewerExtensions/3.0/"
	 x="0px" y="0px" width="267px" height="264px" viewBox="-4.757 -4.666 267 264" enable-background="new -4.757 -4.666 267 264"
	 xml:space="preserve">
<defs>
</defs>
<g>
	<g>
		<path d="M13.258,229.996c-0.912-72.772-6.814-145.438-5.58-218.245c0.04-2.358-1.621-4.674-3.515-5.947
			C2.893,4.95,0.209,4.332,0.169,6.698c-1.234,72.807,4.668,145.472,5.58,218.246c0.03,2.38,1.576,4.644,3.515,5.947
			C10.486,231.712,13.288,232.384,13.258,229.996L13.258,229.996z"/>
	</g>
</g>
<g>
	<g>
		<path d="M6.021,11.521c64.396,0.553,128.778-1.15,193.159-2.31c4.616-0.083,0.848-9.286-3.336-9.211
			C131.463,1.161,67.082,2.864,2.685,2.311C-1.885,2.271,1.843,11.485,6.021,11.521L6.021,11.521z"/>
	</g>
</g>
<g>
	<g>
		<path d="M12.783,257.123c78.174-7.562,158.106-16.796,236.01-1.943c1.813,0.346,5.062,0.582,6.27-1.259
			c1.201-1.83-2.001-3.117-3.236-3.353c-79.746-15.205-161.27-6.221-241.31,1.521C3.825,252.737,8.043,257.582,12.783,257.123
			L12.783,257.123z"/>
	</g>
</g>
<g>
	<g>
		<path d="M258.646,250.748c-5.172-73.277-12.815-146.451-13.307-219.976c-0.029-4.311-9.84-5.451-9.807-0.37
			c0.492,73.525,8.136,146.698,13.307,219.977C249.146,254.723,259.002,255.789,258.646,250.748L258.646,250.748z"/>
	</g>
</g>
</svg>
