<?xml version="1.0" encoding="utf-8"?>
<!-- Generator: Adobe Illustrator 15.1.0, SVG Export Plug-In  -->
<!DOCTYPE svg PUBLIC "-//W3C//DTD SVG 1.1//EN" "http://www.w3.org/Graphics/SVG/1.1/DTD/svg11.dtd" [
	<!ENTITY ns_flows "http://ns.adobe.com/Flows/1.0/">
]>
<svg version="1.1"
	 xmlns="http://www.w3.org/2000/svg" xmlns:xlink="http://www.w3.org/1999/xlink" xmlns:a="http://ns.adobe.com/AdobeSVGViewerExtensions/3.0/"
	 x="0px" y="0px" width="317px" height="317px" viewBox="-6.292 -5.788 317 317" enable-background="new -6.292 -5.788 317 317"
	 xml:space="preserve">
<defs>
</defs>
<g>
	<g>
		<path d="M21.636,271.005c-1.042-83.835-7.852-167.546-6.422-251.418c0.081-4.717-3.243-9.349-7.03-11.895
			C5.643,5.984,0.277,4.747,0.196,9.479c-1.43,83.873,5.379,167.583,6.422,251.418c0.059,4.761,3.152,9.288,7.03,11.895
			C16.093,274.436,21.695,275.779,21.636,271.005L21.636,271.005z"/>
	</g>
</g>
<g>
	<g>
		<path d="M11.535,21.083c74.11,0.642,148.204-1.325,222.296-2.661c4.874-0.088,4.494-7.069,3.414-10.045
			c-1.548-4.271-5.237-8.463-10.086-8.375C153.067,1.337,78.973,3.303,4.863,2.662C-0.028,2.62,0.404,9.828,1.448,12.708
			C3.032,17.075,6.664,21.041,11.535,21.083L11.535,21.083z"/>
	</g>
</g>
<g>
	<g>
		<path d="M18.863,302.245c89.156-8.63,180.504-19.405,269.359-2.416c3.624,0.692,10.124,1.161,12.54-2.519
			c2.402-3.661-4.003-6.233-6.474-6.706c-92.539-17.693-187.068-7.418-279.958,1.574c-2.462,0.238-9.292,1.5-7.452,5.599
			C8.612,301.637,15.25,302.595,18.863,302.245L18.863,302.245z"/>
	</g>
</g>
<g>
	<g>
		<path d="M305.013,292.926c-5.948-84.416-14.757-168.713-15.313-253.413c-0.057-8.621-19.678-10.901-19.611-0.74
			c0.557,84.7,9.365,168.997,15.313,253.413C286.014,300.874,305.723,303.007,305.013,292.926L305.013,292.926z"/>
	</g>
</g>
</svg>
