<?xml version="1.0" encoding="utf-8"?>
<!-- Generator: Adobe Illustrator 15.1.0, SVG Export Plug-In  -->
<!DOCTYPE svg PUBLIC "-//W3C//DTD SVG 1.1//EN" "http://www.w3.org/Graphics/SVG/1.1/DTD/svg11.dtd" [
	<!ENTITY ns_flows "http://ns.adobe.com/Flows/1.0/">
]>
<svg version="1.1"
	 xmlns="http://www.w3.org/2000/svg" xmlns:xlink="http://www.w3.org/1999/xlink" xmlns:a="http://ns.adobe.com/AdobeSVGViewerExtensions/3.0/"
	 x="0px" y="0px" width="260px" height="260px" viewBox="-2.271 -4.065 260 260" enable-background="new -2.271 -4.065 260 260"
	 xml:space="preserve">
<defs>
</defs>
<g>
	<g>
		<path d="M0.001,3.921c3.458,82.586,0.917,165.25,0.897,247.871c0,2.562,5.81,1.366,5.811-0.67
			C6.729,168.207,9.268,85.249,5.797,2.368C5.713,0.353-0.097,1.567,0.001,3.921L0.001,3.921z"/>
	</g>
</g>
<g>
	<g>
		<path d="M247.639,2.683c3.455,82.25,2.089,164.586,2.078,246.881c0,2.562,5.81,1.366,5.811-0.67
			c0.011-82.589,1.375-165.22-2.093-247.764C253.35-0.886,247.541,0.329,247.639,2.683L247.639,2.683z"/>
	</g>
</g>
<g>
	<g>
		<path d="M2.975,3.638c81.549,0.873,163.102-0.784,244.65,0.088c2.291,0.025,6.132-3.422,2.207-3.464
			C168.283-0.61,86.731,1.047,5.182,0.174C2.891,0.149-0.95,3.596,2.975,3.638L2.975,3.638z"/>
	</g>
</g>
<g>
	<g>
		<path d="M2.7,253.189c83.031,0.88,166.065-0.791,249.096,0.087c2.291,0.023,6.132-3.423,2.207-3.465
			c-83.031-0.877-166.065,0.794-249.096-0.087C2.616,249.7-1.225,253.147,2.7,253.189L2.7,253.189z"/>
	</g>
</g>
</svg>
