<?xml version="1.0" encoding="utf-8"?>
<!-- Generator: Adobe Illustrator 15.1.0, SVG Export Plug-In  -->
<!DOCTYPE svg PUBLIC "-//W3C//DTD SVG 1.1//EN" "http://www.w3.org/Graphics/SVG/1.1/DTD/svg11.dtd" [
	<!ENTITY ns_flows "http://ns.adobe.com/Flows/1.0/">
]>
<svg version="1.1"
	 xmlns="http://www.w3.org/2000/svg" xmlns:xlink="http://www.w3.org/1999/xlink" xmlns:a="http://ns.adobe.com/AdobeSVGViewerExtensions/3.0/"
	 x="0px" y="0px" width="75px" height="75px" viewBox="-0.64 -0.802 75 75" enable-background="new -0.64 -0.802 75 75"
	 xml:space="preserve">
<defs>
</defs>
<g>
	<g>
		<path d="M0,2.139C0.959,25.39,0.604,48.66,0.593,71.923c0,0.854,1.937,0.456,1.937-0.223C2.541,48.339,2.895,24.97,1.932,1.622
			C1.905,0.95-0.032,1.354,0,2.139L0,2.139z"/>
	</g>
</g>
<g>
	<g>
		<path d="M71.078,0.857c0.959,23.251,0.604,46.521,0.593,69.784c0,0.854,1.937,0.456,1.937-0.223
			c0.011-23.361,0.365-46.73-0.598-70.079C72.981-0.332,71.045,0.072,71.078,0.857L71.078,0.857z"/>
	</g>
</g>
<g>
	<g>
		<path d="M1.272,2.458C24.579,2.655,47.853,1.003,71.159,1.2c0.763,0.007,2.043-1.144,0.735-1.154
			C48.588-0.152,25.314,1.5,2.008,1.303C1.245,1.296-0.036,2.447,1.272,2.458L1.272,2.458z"/>
	</g>
</g>
<g>
	<g>
		<path d="M1.29,73.017c23.697,0.2,47.363-1.454,71.061-1.256c0.763,0.007,2.043-1.144,0.735-1.154
			c-23.697-0.199-47.363,1.455-71.061,1.256C1.263,71.855-0.018,73.006,1.29,73.017L1.29,73.017z"/>
	</g>
</g>
</svg>
